<?xml version="1.0" encoding="iso-8859-1"?>
<!-- Generator: Adobe Illustrator 19.0.0, SVG Export Plug-In . SVG Version: 6.00 Build 0)  -->
<svg xmlns="http://www.w3.org/2000/svg" xmlns:xlink="http://www.w3.org/1999/xlink" version="1.1" id="Capa_1" x="0px" y="0px" viewBox="0 0 512 512" style="enable-background:new 0 0 512 512;" xml:space="preserve" width="512px" height="512px">
<g>
	<g>
		<path d="M201.147,45.714v109.714h109.714V45.714H201.147z M256.005,137.143c-20.169,0-36.571-16.402-36.571-36.571    c0-20.169,16.402-36.571,36.571-36.571s36.571,16.402,36.571,36.571C292.576,120.741,276.165,137.143,256.005,137.143z" fill="#005fff"/>
	</g>
</g>
<g>
	<g>
		<path d="M429.719,82.286c-5.047,0-9.143-4.096-9.143-9.143V0H155.433v292.571c4.974,0,9.947,0,14.912,0    c12.416,0,24.823,0,37.239,0c16.137,0,32.265,0,48.402,0c16.137,0,32.274,0,48.402,0c12.416,0,24.832,0,37.248,0    c6.098,0,17.161-1.737,21.568,3.035c3.566,3.858,2.505,10.487,2.505,15.47c0,5.211,0,10.432,0,15.643c0,15.003,0,30.016,0,45.029    c0,16.741,0,33.49,0,50.231c0,13.239,0,26.478,0,39.707c0,4.581,0,9.161,0,13.742h146.286V82.286H429.719z M356.576,64h36.571    c5.047,0,9.143,4.096,9.143,9.143c0,5.047-4.096,9.143-9.143,9.143h-36.571c-5.047,0-9.143-4.096-9.143-9.143    C347.433,68.096,351.529,64,356.576,64z M182.862,36.571L182.862,36.571c0-5.047,4.096-9.143,9.143-9.143h128    c5.047,0,9.143,4.096,9.143,9.143v128c0,5.047-4.096,9.143-9.143,9.143h-128c-5.047,0-9.143-4.096-9.143-9.143V36.571z     M475.433,448H402.29c-5.047,0-9.143-4.096-9.143-9.143c0-5.047,4.096-9.143,9.143-9.143h73.143c5.047,0,9.143,4.096,9.143,9.143    C484.576,443.904,480.48,448,475.433,448z M475.433,402.286H402.29c-5.047,0-9.143-4.096-9.143-9.143    c0-5.047,4.096-9.143,9.143-9.143h73.143c5.047,0,9.143,4.096,9.143,9.143C484.576,398.19,480.48,402.286,475.433,402.286z     M475.433,356.571H402.29c-5.047,0-9.143-4.096-9.143-9.143s4.096-9.143,9.143-9.143h73.143c5.047,0,9.143,4.096,9.143,9.143    S480.48,356.571,475.433,356.571z M475.433,310.857H402.29c-5.047,0-9.143-4.096-9.143-9.143c0-5.047,4.096-9.143,9.143-9.143    h73.143c5.047,0,9.143,4.096,9.143,9.143C484.576,306.761,480.48,310.857,475.433,310.857z M475.433,265.143H192.005    c-5.047,0-9.143-4.096-9.143-9.143s4.096-9.143,9.143-9.143h283.429c5.047,0,9.143,4.096,9.143,9.143    S480.48,265.143,475.433,265.143z M475.433,219.429H192.005c-5.047,0-9.143-4.096-9.143-9.143c0-5.047,4.096-9.143,9.143-9.143    h283.429c5.047,0,9.143,4.096,9.143,9.143C484.576,215.333,480.48,219.429,475.433,219.429z M475.433,173.714H356.576    c-5.047,0-9.143-4.096-9.143-9.143c0-5.047,4.096-9.143,9.143-9.143h118.857c5.047,0,9.143,4.096,9.143,9.143    C484.576,169.618,480.48,173.714,475.433,173.714z M475.433,128H356.576c-5.047,0-9.143-4.096-9.143-9.143    c0-5.047,4.096-9.143,9.143-9.143h118.857c5.047,0,9.143,4.096,9.143,9.143C484.576,123.904,480.48,128,475.433,128z" fill="#005fff"/>
	</g>
</g>
<g>
	<g>
		<circle cx="256.005" cy="100.571" r="18.286" fill="#005fff"/>
	</g>
</g>
<g>
	<g>
		<path d="M178.427,419.264c-1.454,0.869-3.072,1.307-4.709,1.307s-3.255-0.43-4.709-1.307L0.005,317.861V512h347.429v-27.429    V317.861L178.427,419.264z M27.433,438.857h27.429c5.047,0,9.143,4.096,9.143,9.143c0,5.047-4.096,9.143-9.143,9.143H27.433    c-5.047,0-9.143-4.096-9.143-9.143C18.29,442.953,22.386,438.857,27.433,438.857z M100.576,493.714H27.433    c-5.047,0-9.143-4.096-9.143-9.143c0-5.047,4.096-9.143,9.143-9.143h73.143c5.047,0,9.143,4.096,9.143,9.143    C109.719,489.618,105.623,493.714,100.576,493.714z" fill="#005fff"/>
	</g>
</g>
<g>
	<g>
		<polygon points="146.29,310.857 23.867,310.857 173.719,400.768 323.561,310.857   " fill="#005fff"/>
	</g>
</g>
<g>
	<g>
		<polygon points="438.862,11.392 438.862,64 497.312,64   " fill="#005fff"/>
	</g>
</g>
<g>
</g>
<g>
</g>
<g>
</g>
<g>
</g>
<g>
</g>
<g>
</g>
<g>
</g>
<g>
</g>
<g>
</g>
<g>
</g>
<g>
</g>
<g>
</g>
<g>
</g>
<g>
</g>
<g>
</g>
</svg>
