<svg id="Warstwa_1" data-name="Warstwa 1" xmlns="http://www.w3.org/2000/svg" viewBox="0 0 32 32"><defs><style>.cls-1{fill:#fffdfd;}</style></defs><title>Obszar roboczy 1</title><path id="Elipsa_1878" data-name="Elipsa 1878" class="cls-1" d="M24,30a8,8,0,1,1,8-8A8,8,0,0,1,24,30Zm-.74-10.1a1.62,1.62,0,0,1,.69-.13,1.3,1.3,0,0,1,.53.1.94.94,0,0,1,.34.23l.13.15a.63.63,0,0,0,.17.14.48.48,0,0,0,.22,0h1.27a.18.18,0,0,0,.14-.07.22.22,0,0,0,.07-.17,1.91,1.91,0,0,0-.27-.8,2.84,2.84,0,0,0-.69-.76,3,3,0,0,0-1-.5v-.83a.32.32,0,0,0-.08-.21.23.23,0,0,0-.19-.09H23.32a.25.25,0,0,0-.19.09.32.32,0,0,0-.08.21v.82a2.57,2.57,0,0,0-1.36.86,2.23,2.23,0,0,0-.5,1.42,2.35,2.35,0,0,0,.47,1.53,2.63,2.63,0,0,0,1.46.82l.44.1,1,.26a1.63,1.63,0,0,1,.48.22.39.39,0,0,1,.17.32c0,.39-.4.59-1.21.59a1.36,1.36,0,0,1-.61-.13A1,1,0,0,1,23,23.8l-.16-.19a.5.5,0,0,0-.37-.16H21.2a.18.18,0,0,0-.14.07.26.26,0,0,0-.06.17,1.71,1.71,0,0,0,.27.9,2.53,2.53,0,0,0,.72.78,3.1,3.1,0,0,0,1.06.5v.82a.32.32,0,0,0,.08.21.25.25,0,0,0,.19.09h1.27a.23.23,0,0,0,.19-.09.32.32,0,0,0,.08-.21v-.79a2.85,2.85,0,0,0,1.57-.8A2.13,2.13,0,0,0,27,23.58,2.19,2.19,0,0,0,26.5,22a3.22,3.22,0,0,0-1.62-.8l-1.21-.3a1.55,1.55,0,0,1-.51-.23.41.41,0,0,1-.16-.35A.45.45,0,0,1,23.26,19.9ZM8,22V20h6.2a10.13,10.13,0,0,0-.2,2ZM8,10H20v2H8Zm0,8V16h7v1.84l-.16.16H8Zm16-6V4H4V28H16a10.26,10.26,0,0,0,2,2H2V2H26V12.2a10.13,10.13,0,0,0-2-.2Z"/></svg>