<svg xmlns="http://www.w3.org/2000/svg" viewBox="0 0 72 72" enable-background="new 0 0 72 72"><style type="text/css">.st0{fill:#FFFFFF;}</style><path id="Kształt_1264_kopia_2" d="M72 60h-3.9c0-4.3-3.4-7.9-7.7-8-.1 0-.2 0-.3 0s-.2 0-.3 0c-4.3.2-7.7 3.7-7.7 8H48c0-4.3 2.3-8.2 6-10.3-3.7-3.3-4-9-.7-12.7 3.3-3.7 9-4 12.7-.7 3.7 3.3 4 9 .7 12.7-.2.2-.4.4-.7.7 3.7 2.1 6 6 6 10.3zM60 38c-2.8 0-5 2.2-5 5s2.2 5 5 5 5-2.2 5-5-2.2-5-5-5zm-12.5-3c-4.7 0-8.5-3.8-8.5-8.5s3.8-8.5 8.5-8.5 8.5 3.8 8.5 8.5-3.8 8.5-8.5 8.5zm0-12.9c-2.4 0-4.4 2-4.4 4.4 0 2.4 2 4.4 4.4 4.4s4.4-2 4.4-4.4c0-2.5-2-4.4-4.4-4.4zm-1.4 30.1c0 3.1-1.4 6.9-3.7 8.8 4 2.3 6.4 6.5 6.4 11h-4c-.1-4.8-4-8.7-8.9-8.7-4.8.1-8.6 3.9-8.7 8.7h-4c0-4.6 2.4-8.8 6.4-11-4.3-3.5-5-9.8-1.5-14.1 1.9-2.4 4.8-3.7 7.8-3.7 5.7 0 10.2 3.5 10.2 9zM36 47.1c-3.3 0-6.1 2.7-6 6.1s2.7 6.1 6.1 6c3.3 0 6-2.7 6-6.1 0-3.2-2.8-6-6.1-6zM24.5 35c-4.7 0-8.5-3.8-8.5-8.5s3.8-8.5 8.5-8.5 8.5 3.8 8.5 8.5-3.8 8.5-8.5 8.5zm0-12.9c-2.4 0-4.4 2-4.4 4.4 0 2.4 2 4.4 4.4 4.4 2.4 0 4.4-2 4.4-4.4 0-2.5-2-4.4-4.4-4.4zM21 43c0 2.5-1.1 5-3 6.7 3.7 2.1 6 6.1 6 10.3h-3.9c0-4.3-3.4-7.9-7.7-8-.1 0-.2 0-.3 0s-.2 0-.3 0c-4.4.2-7.8 3.7-7.8 8H0c0-4.3 2.3-8.2 6-10.3-3.7-3.3-4-9-.6-12.7 3.3-3.7 9-4 12.7-.6C19.9 38 21 40.5 21 43zm-9-5c-2.8 0-5 2.2-5 5s2.2 5 5 5 5-2.2 5-5-2.2-5-5-5z" class="st0"/></svg>