<svg xmlns="http://www.w3.org/2000/svg" viewBox="0 0 72 72" enable-background="new 0 0 72 72"><style type="text/css">.st0{fill:#FFFFFF;}</style><path id="Elipsa_2100" d="M62 20.7L34 39.4 6 20.7V57h28.1c.1 1.4.3 2.7.6 4H2V15h64v25c-1.2-.9-2.6-1.7-4-2.4V20.7zM10.6 19L34 34.6 57.4 19H10.6zM54 40c8.8 0 16 7.2 16 16s-7.2 16-16 16-16-7.2-16-16 7.2-16 16-16zm0 28c6.6 0 12-5.4 12-12s-5.4-12-12-12-12 5.4-12 12 5.4 12 12 12zm-3.6-14.4l3.1 3.1 5.1-5.1 2.8 2.8-5.1 5.1.1.1-2.8 2.8-.1-.1-.1.1-2.8-2.8.1-.1-3.1-3.1 2.8-2.8z" class="st0"/></svg>