<svg xmlns="http://www.w3.org/2000/svg" width="72" height="72"><defs><style>.cls-1 { fill: #fff; fill-rule: evenodd; }</style></defs><path id="Kształt_770_kopia_3" d="M68 44.9a52.78 52.78 0 0 1-6 1 20.2 20.2 0 0 0 .12-4.38c.93-.22 1.85-.35 2.9-.65 1.5-.43 3-1 3-1V20.7a26.82 26.82 0 0 1-13.2-4.02 12.54 12.54 0 0 0-2.93-1.33c-2.5-.54-7.66-1.65-14.87 5.14L25.1 30.76c1.8 1.43 5 3.16 8.24 1.12l9.23-8.26 2.96 3.45-9.9 8.12c-6.2 4.1-12.58-.3-15.07-3.18l-1.33-1.55 15.12-13.04c.67-.62 1.97-1.72 1.97-1.72l3.02-2.13a17.24 17.24 0 0 1 13.4-2.22 15.33 15.33 0 0 1 3.98 1.73 27.83 27.83 0 0 0 15.3 3.57v26.2a8.3 8.3 0 0 1-4 2.03zM26 13.65a44.74 44.74 0 0 1-6.68-.3L5 26.75 32.07 58.8c1.24 1.24 4.52.4 7-1.03.06-.03.13-.08.2-.1l-5.8-6.8 3.05-2.63 6.22 7.28c1.68-1.06 3.57-2.28 5.28-3.4l-6.8-7.95 3.04-2.64 7.16 8.38c.74-.48 1.3-.84 1.55-1a4.9 4.9 0 0 0 .06-6.8l-7.6-8.36 3.6-2.3 6.6 7.64a9 9 0 0 1 .97 2.35 6 6 0 0 0 .78.13 6.14 6.14 0 0 1 .63 2.5c-.04 2.45.18 5.23-2.38 7.9 0 0-5.14 3.56-14.55 9.33-3.74 2.3-8.94 3.4-11.92.28l-.03-.04L0 26.74 18.73 8.5l1.22.66c.9.48 4.64.44 8.04.45 3.08.03 5.8.04 7.3 1.56l-4.3 3.5a12.8 12.8 0 0 0-5-1z" class="cls-1"/></svg>