<svg xmlns="http://www.w3.org/2000/svg" viewBox="0 0 72 72" enable-background="new 0 0 72 72"><style type="text/css">.st0{fill:#FFFFFF;}</style><path id="_" d="M63.4 41.1l-1.4.5V28H7v37h28.7l2.2 3.8c0 .1.1.1.1.2H3V14h63v26.9c-.9-.2-1.7-.1-2.6.2zM62 18H7v6h55v-6zm-50 4h-2v-2h2v2zm4 0h-2v-2h2v2zm4 0h-2v-2h2v2zm25.6 17.8l-.3 1.9-1.4-.6-1.8-1.8 2.8-2.8 1.5 1.5c-.4.6-.7 1.2-.8 1.8zm-10.9 8.9l-.2.3c-.7 1.4-.7 3 0 4.3L34 55h-4l6-19h4l-2.4 7.7-2.9 5zM25.2 55L16 45.5l9.2-9.5 2.8 2.9-6.4 6.6 6.4 6.6-2.8 2.9zm40.3 1c0-.5-.1-1.1-.1-1.6l3.4-2.6c.3-.2.4-.7.2-1.1l-3.2-5.6c-.2-.3-.6-.5-1-.3l-3.9 1.6c-.8-.6-1.7-1.2-2.7-1.6l-.6-4.2c0-.4-.4-.7-.7-.7 0 0 0 0-.1 0h-6.3c-.4 0-.8.3-.8.7l-.6 4.2c-.9.4-1.8 1-2.7 1.6l-3.9-1.6c-.3-.2-.7-.1-.9.2 0 0 0 .1 0 .1l-3.2 5.6c-.2.4-.1.8.2 1.1l3.4 2.6c0 .6-.1 1.1-.1 1.6s0 1 .1 1.6l-3.4 2.6c-.3.2-.4.7-.2 1.1l3.2 5.6c.2.3.6.5 1 .3l3.9-1.6c.8.6 1.7 1.2 2.7 1.6l.6 4.2c0 .4.4.7.8.7h6.3c.4.1.8-.2.8-.6 0 0 0 0 0-.1l.6-4.2c.9-.4 1.8-1 2.7-1.6l3.9 1.6c.3.2.7.1.9-.2 0 0 .1-.1.1-.1l3.2-5.6c.2-.4.1-.8-.2-1.1l-3.4-2.6c-.1-.5-.1-1.1 0-1.6zm-17.6 0c0-1.5.6-2.9 1.6-4 2.1-2.2 5.6-2.2 7.7-.1 0 0 .1.1.1.1 2.2 2.2 2.2 5.8 0 8-2.1 2.2-5.6 2.2-7.7.1 0 0-.1-.1-.1-.1-1-1.1-1.6-2.5-1.6-4zm17.6 0c0-.5-.1-1.1-.1-1.6l3.4-2.6c.3-.2.4-.7.2-1.1l-3.2-5.6c-.2-.3-.6-.5-1-.3l-3.9 1.6c-.8-.6-1.7-1.2-2.7-1.6l-.6-4.2c0-.4-.4-.7-.7-.7 0 0 0 0-.1 0h-6.3c-.4 0-.8.3-.8.7l-.6 4.2c-.9.4-1.8 1-2.7 1.6l-3.9-1.6c-.3-.2-.7-.1-.9.2 0 0 0 .1 0 .1l-3.2 5.6c-.2.4-.1.8.2 1.1l3.4 2.6c0 .6-.1 1.1-.1 1.6s0 1 .1 1.6l-3.4 2.6c-.3.2-.4.7-.2 1.1l3.2 5.6c.2.3.6.5 1 .3l3.9-1.6c.8.6 1.7 1.2 2.7 1.6l.6 4.2c0 .4.4.7.8.7h6.3c.4.1.8-.2.8-.6 0 0 0 0 0-.1l.6-4.2c.9-.4 1.8-1 2.7-1.6l3.9 1.6c.3.2.7.1.9-.2 0 0 .1-.1.1-.1l3.2-5.6c.2-.4.1-.8-.2-1.1l-3.4-2.6c-.1-.5-.1-1.1 0-1.6zm-17.6 0c0-1.5.6-2.9 1.6-4 2.1-2.2 5.6-2.2 7.7-.1 0 0 .1.1.1.1 2.2 2.2 2.2 5.8 0 8-2.1 2.2-5.6 2.2-7.7.1 0 0-.1-.1-.1-.1-1-1.1-1.6-2.5-1.6-4z" class="st0"/></svg>