<?xml version="1.0" encoding="UTF-8" standalone="no"?>
<svg width="18px" height="22px" viewBox="0 0 18 22" version="1.1" xmlns="http://www.w3.org/2000/svg" xmlns:xlink="http://www.w3.org/1999/xlink">
    <!-- Generator: Sketch 39.1 (31720) - http://www.bohemiancoding.com/sketch -->
    <title>icon-sm-file-download-green</title>
    <desc>Created with Sketch.</desc>
    <defs></defs>
    <g id="Icons" stroke="none" stroke-width="1" fill="none" fill-rule="evenodd">
        <g id="01.-Icons-Small" transform="translate(-1007.000000, -405.000000)">
            <g id="icon-sm-file-download-green" transform="translate(1004.000000, 404.000000)">
                <g id="Frame_-_24px">
                    <rect id="Rectangle-path" x="0" y="0" width="24" height="24"></rect>
                </g>
                <g id="Line_Icons" transform="translate(3.000000, 1.000000)" fill="#0CBF82">
                    <polygon id="Shape" points="10 13 10 8 8 8 8 13 5 13 9 17 13 13"></polygon>
                    <path d="M13.414,0 L2,0 C0.897,0 0,0.898 0,2 L0,20 C0,21.103 0.897,22 2,22 L16,22 C17.103,22 18,21.103 18,20 L18,4.586 L13.414,0 L13.414,0 Z M2,20 L2,2 L12,2 L12,6 L16,6 L16.001,20 L2,20 L2,20 Z" id="Shape"></path>
                </g>
            </g>
        </g>
    </g>
</svg>