<?xml version="1.0" encoding="UTF-8"?> <svg xmlns="http://www.w3.org/2000/svg" xmlns:xlink="http://www.w3.org/1999/xlink" id="Layer_1" x="0px" y="0px" viewBox="0 0 174 28" style="enable-background:new 0 0 174 28;" xml:space="preserve"> <style type="text/css"> .st0{clip-path:url(#SVGID_2_);} .st1{fill:#FBB216;} .st2{fill:#fff;} </style> <g> <defs> <rect id="SVGID_1_" width="35.6" height="28"></rect> </defs> <clipPath id="SVGID_2_"> <use xlink:href="#SVGID_1_" style="overflow:visible;"></use> </clipPath> <g class="st0"> <path class="st1" d="M17.8,0c-2.2,0-4.4,0.2-6.1,0.5c-2.8,0.4-5,2.4-5.9,5L4.2,9.9c0,0,0,0,0,0L1.2,9.2C0.8,9.1,0.4,9.3,0.2,9.7 l-0.1,0.5c-0.5,1.7,0.5,3.5,2.2,4v5c0,0.8,0.2,1.5,0.5,2.2v5.1c0,0.8,0.7,1.5,1.5,1.5h3.1C8.3,28,9,27.3,9,26.5v-2.4 c2.1,0.2,5.7,0.3,8.8,0.4c3.1,0,6.7-0.1,8.8-0.2v2.3c0,0.8,0.7,1.5,1.5,1.5h3.1c0.9,0,1.5-0.7,1.5-1.5v-4.9 c0.3-0.6,0.5-1.4,0.5-2.1v-5.3c1.7-0.5,2.7-2.3,2.2-4l-0.1-0.5c-0.1-0.4-0.5-0.6-0.9-0.5l-3,0.8l-1.6-4.5c-0.9-2.6-3.1-4.6-5.9-5 C22.2,0.2,20,0,17.8,0z M12.2,4c1.6-0.2,3.7-0.5,5.6-0.5c1.9,0,3.9,0.2,5.6,0.5c1.4,0.2,2.6,1.2,3.1,2.6L28,11 c-1.4,0.5-4.3,1.3-10.2,1.2c-5.8-0.1-8.8-0.8-10.2-1.3l1.5-4.3C9.7,5.2,10.8,4.2,12.2,4z M8.8,18.1c0,1.3-1,2.3-2.3,2.3 s-2.3-1-2.3-2.3c0-1.3,1-2.3,2.3-2.3S8.8,16.8,8.8,18.1z M28.1,11.2C28.1,11.2,28.1,11.2,28.1,11.2C28.1,11.2,28.1,11.2,28.1,11.2 z M7.6,11.1C7.6,11.1,7.6,11.1,7.6,11.1C7.6,11.1,7.6,11.1,7.6,11.1z M31.5,18.1c0,1.3-1,2.3-2.3,2.3c-1.3,0-2.3-1-2.3-2.3 c0-1.3,1-2.3,2.3-2.3C30.4,15.8,31.5,16.8,31.5,18.1z M12.4,19.7c0.1-0.7,0.7-1.2,1.4-1.1l0.3,0c2.4,0.3,4.9,0.3,7.4,0l0.3,0 c0.7-0.1,1.4,0.4,1.4,1.1c0.1,0.7-0.4,1.3-1.1,1.4l-0.3,0c-2.7,0.3-5.3,0.3-8,0l-0.3,0C12.8,21,12.3,20.4,12.4,19.7z"></path> </g> </g> <path class="st2" d="M62.8,16l5-5.4c0.3-0.3,0.4-0.8,0.4-1.2c0-1-0.9-1.9-1.9-1.9c-0.5,0-1,0.2-1.3,0.6l-7.5,8.4v-14 c0-1.1-0.9-2-2-2c-1.2,0-2.1,0.9-2.1,2v21.8c0,1.1,0.9,2,2,2c1.1,0,2-0.9,2-2v-3.1l2.5-2.6l5,6.9c0.4,0.6,1,0.8,1.7,0.8 c1.2,0,2-1.1,2-2c0-0.4-0.1-0.8-0.4-1.1L62.8,16z M75.2,0.5c-1.4,0-2.5,1.1-2.5,2.5c0,1.4,1.1,2.5,2.5,2.5c1.4,0,2.5-1.1,2.5-2.5 C77.6,1.6,76.5,0.5,75.2,0.5z M75.2,7.5c-1.2,0-2.1,0.9-2.1,2v14.8c0,1.1,0.9,2,2,2c1.1,0,2-0.9,2-2V9.5C77.2,8.4,76.3,7.5,75.2,7.5 z M105.3,7.5c-0.9,0-1.7,0.6-1.9,1.4l-3.5,12L96.1,9.1c-0.3-0.9-1.2-1.6-2.2-1.6c-1.1,0-2,0.6-2.3,1.6l-3.8,11.8l-3.5-12 c-0.2-0.8-1.1-1.4-1.9-1.4c-1.2,0-2,1-2,1.9c0,0.2,0,0.4,0.1,0.6L85,24.3c0.3,1.1,1.4,1.9,2.6,1.9h0.1c1.2,0,2.3-0.8,2.6-1.9 l3.6-11.7l3.6,11.7c0.3,1.1,1.4,1.9,2.6,1.9h0.1c1.2,0,2.3-0.8,2.6-1.9l4.4-14.3c0.1-0.2,0.1-0.4,0.1-0.6 C107.3,8.4,106.4,7.5,105.3,7.5z M112.6,0.5c-1.4,0-2.5,1.1-2.5,2.5c0,1.4,1.1,2.5,2.5,2.5c1.4,0,2.5-1.1,2.5-2.5 C115.1,1.6,114,0.5,112.6,0.5z M112.7,7.5c-1.2,0-2.1,0.9-2.1,2v14.8c0,1.1,0.9,2,2,2c1.1,0,2-0.9,2-2V9.5 C114.6,8.4,113.7,7.5,112.7,7.5z M127.5,22.8c-0.2,0-0.6,0.1-0.8,0.1c-0.9,0-1.7-0.8-1.7-2.2v-9.5h2.2c0.9,0,1.7-0.8,1.7-1.7 c0-1-0.8-1.8-1.7-1.8H125V2.5c0-1.1-0.9-2-2-2c-1.2,0-2.1,0.9-2.1,2v5.2h-1.5c-0.9,0-1.7,0.8-1.7,1.7c0,1,0.8,1.8,1.7,1.8h1.5v10.5 c0,3.1,1.6,4.7,4.7,4.7c2.6,0,3.6-0.8,3.6-2C129.3,23.5,128.6,22.8,127.5,22.8z M161.1,16.6l4.4-6.2c0.2-0.3,0.3-0.7,0.3-1.1 c0-0.9-0.8-1.8-1.9-1.8c-0.6,0-1.2,0.3-1.6,0.8l-3.8,5.5l-3.9-5.5c-0.4-0.5-0.9-0.8-1.5-0.8c-1.1,0-1.9,0.9-1.9,1.9 c0,0.3,0.1,0.7,0.3,1l4.4,6.2l-4.8,6.8c-0.2,0.3-0.3,0.7-0.3,1c0,1,0.9,1.9,1.9,1.9c0.6,0,1.1-0.2,1.5-0.8l4.3-6.1l4.2,6.1 c0.3,0.5,0.9,0.8,1.5,0.8c1.1,0,1.8-0.9,1.8-1.9c0-0.3-0.1-0.7-0.3-1L161.1,16.6z M171.5,5.5c1.4,0,2.5-1.1,2.5-2.5 c0-1.4-1.1-2.5-2.5-2.5S169,1.6,169,3C169,4.4,170.2,5.5,171.5,5.5z M171.6,7.5c-1.2,0-2.1,0.9-2.1,2v14.8c0,1.1,0.9,2,2,2 c1.1,0,2-0.9,2-2V9.5C173.6,8.4,172.6,7.5,171.6,7.5z M145.8,7.5c-1.2,0-2.1,0.9-2.1,2v0.2c-1.1-1.4-2.7-2.4-4.9-2.4 c-5.2,0-7.8,4.4-7.8,9.6v0c0,5.2,2.6,9.6,7.8,9.6c2.2,0,3.8-0.9,4.9-2.2c0,1.1,0.9,2,2,2c1.1,0,2-0.9,2-2V9.5 C147.8,8.4,146.9,7.5,145.8,7.5z M139.4,22.9c-2.7,0-4.3-2.8-4.3-6c0-3.2,1.5-6,4.3-6c2.7,0,4.4,2.6,4.4,6 C143.7,20.2,142.1,22.9,139.4,22.9z"></path> </svg> 